# xmcd
#
# Track frame offsets: 
#        187
#        14207
#        31467
#        48040
#        58682
#        75612
#        96867
#        114480
#        130040
#        141245
#        155660
#        170152
#        182400
#
# Disc length: 2791 seconds
#
# Revision: 3
# Processed by: cddbd v1.5.2PL0 Copyright (c) Steve Scherf et al.
# Submitted via: ExactAudioCopyFreeDBPlugin 1.0
#
DISCID=ae0ae50d
DTITLE=Black Ivory - Don't Turn Around
DYEAR=1972
DGENRE=Soul
TTITLE0=It's Time To Say Goodbye
TTITLE1=Time Is Love
TTITLE2=Just Leave Me Some
TTITLE3=Loveland
TTITLE4=No If's And's Or But's
TTITLE5=Wishful Thinking
TTITLE6=Our Future
TTITLE7=Don't Turn Around
TTITLE8=Surrender
TTITLE9=I'll Find A Way
TTITLE10=I Keep Asking You Questions
TTITLE11=She Said She's Leaving
TTITLE12=You and I
EXTD=
EXTT0=
EXTT1=
EXTT2=
EXTT3=
EXTT4=
EXTT5=
EXTT6=
EXTT7=
EXTT8=
EXTT9=
EXTT10=
EXTT11=
EXTT12=
PLAYORDER=
